<svg width="56" height="56" viewBox="0 0 56 56" xmlns="http://www.w3.org/2000/svg" xmlns:xlink="http://www.w3.org/1999/xlink"><title>30_Days_Down</title><defs><ellipse id="a" cx="28" cy="28" rx="28" ry="28"/><mask id="c" x="0" y="0" width="56" height="56" fill="#fff"><use xlink:href="#a"/></mask><path d="M28.706 13.765L16.47 1.529C16 1.06 15.41.824 14.706.824c-.706 0-1.294.235-1.647.705L.706 13.765c-.47.47-.706 1.059-.706 1.764 0 .706.235 1.177.706 1.647l1.412 1.412c.47.47 1.058.706 1.647.706.706 0 1.294-.235 1.647-.706l5.53-5.53v13.295c0 .706.234 1.176.705 1.647a2.89 2.89 0 0 0 1.765.588h2.47A2.89 2.89 0 0 0 17.647 28c.47-.353.706-.941.706-1.647V13.059l5.53 5.53c.47.47 1.058.705 1.646.705.706 0 1.295-.235 1.765-.706l1.412-1.412c.47-.47.706-1.058.706-1.647 0-.705-.236-1.294-.706-1.764z" id="b"/><mask id="d" x="0" y="0" width="29.412" height="27.765" fill="#fff"><use xlink:href="#b"/></mask></defs><g stroke="#0074E4" stroke-width="2" fill="#FFF" fill-rule="evenodd"><use mask="url(#c)" xlink:href="#a"/><use mask="url(#d)" xlink:href="#b" transform="matrix(1 0 0 -1 13 43)"/></g></svg>