<svg width="56" height="56" viewBox="0 0 56 56" xmlns="http://www.w3.org/2000/svg" xmlns:xlink="http://www.w3.org/1999/xlink"><title>Zestimate_Range</title><defs><ellipse id="a" cx="28" cy="28" rx="28" ry="28"/><mask id="c" x="0" y="0" width="56" height="56" fill="#fff"><use xlink:href="#a"/></mask><path d="M23.804 13.501v10.511c0 .648-.325 1.512-1.513 1.512h-5.94V14.762h-5.94v10.762H4.47c-1.188 0-1.512-.864-1.512-1.512v-10.51H.58c-.864 0-.648-.433-.108-1.08L12.354.431c.324-.324.649-.432 1.08-.432.433 0 .757.216 1.08.432l11.882 11.99c.648.647.864 1.08-.108 1.08h-2.484z" id="b"/><mask id="d" x="0" y="0" width="26.95" height="25.524" fill="#fff"><use xlink:href="#b"/></mask></defs><g stroke="#0074E4" stroke-width="2" fill="#FFF" fill-rule="evenodd"><use mask="url(#c)" xlink:href="#a"/><use mask="url(#d)" xlink:href="#b" transform="translate(15 15)"/></g></svg>