<svg width="56" height="56" viewBox="0 0 56 56" xmlns="http://www.w3.org/2000/svg" xmlns:xlink="http://www.w3.org/1999/xlink"><title>Zestimate_Forecast</title><defs><ellipse id="a" cx="28" cy="28" rx="28" ry="28"/><mask id="c" x="0" y="0" width="56" height="56" fill="#fff"><use xlink:href="#a"/></mask><rect id="b" x="15.5" y="18.5" width="25" height="19" rx="2"/><mask id="d" x="0" y="0" width="25" height="19" fill="#fff"><use xlink:href="#b"/></mask></defs><g fill="none" fill-rule="evenodd"><use stroke="#0074E4" mask="url(#c)" stroke-width="2" fill="#FFF" xlink:href="#a"/><path d="M20 33.2c-.1 0-.2 0-.3-.1-.3-.2-.4-.6-.2-.8l2.6-3.9c.1-.2.3-.2.5-.3.2 0 .4.1.5.3l1.9 3 3-5.8c.1-.2.3-.3.6-.3.2 0 .4.2.5.4l2.3 5.6 4.1-8.2c.2-.3.5-.4.8-.3.3.2.4.5.3.8l-4.8 9.2c-.1.2-.3.3-.6.3-.2 0-.4-.2-.5-.4l-2.3-5.6-2.9 5.6c-.1.2-.3.3-.5.3s-.4-.1-.5-.3l-2-3.1-2 3.3c-.1.2-.3.3-.5.3z" fill="#0074E4"/><use stroke="#0074E4" mask="url(#d)" stroke-width="2" xlink:href="#b"/></g></svg>